# xmcd
#
# Track frame offsets:
# 150
# 15119
# 29029
# 43917
# 54763
# 67888
# 82468
# 92567
# 105288
# 120662
#
# Disc length: 1798 seconds
#
# Revision: 0
# Processed by: cddbd v1.5.1PL0 Copyright (c) Steve Scherf et al.
# Submitted via: Audion 3.0.2 (http://www.panic.com/audion/)
#
DISCID=7507040a
DTITLE=Varios - Coleccion de Oro - Epoca Romantica Disco 3
DYEAR=1900
DGENRE=
TTITLE0=Club verde
TTITLE1=Cuando escuches este vals
TTITLE2=Rosalia
TTITLE3=Maria Elena
TTITLE4=Ojos Tapatios
TTITLE5=Carmen
TTITLE6=Perjuria
TTITLE7=Enlace Cefiros
TTITLE8=Gardenias
TTITLE9=Elodia
EXTD=
EXTT0=
EXTT1=
EXTT2=
EXTT3=
EXTT4=
EXTT5=
EXTT6=
EXTT7=
EXTT8=
EXTT9=
PLAYORDER=
